HIERARCHY
ROOT Hips
{
  OFFSET -102.467 93.6631 130.069
  CHANNELS 6 Xposition Yposition Zposition Zrotation Xrotation Yrotation
  JOINT LeftUpLeg
  {
    OFFSET 8.64259 1.95398 -2.38835
    CHANNELS 3 Zrotation Xrotation Yrotation
    JOINT LeftLeg
    {
      OFFSET 43.7702 0 0
      CHANNELS 3 Zrotation Xrotation Yrotation
      JOINT LeftFoot
      {
        OFFSET 40.6238 0 0
        CHANNELS 3 Zrotation Xrotation Yrotation
        JOINT LeftToeBase
        {
          OFFSET 12.7242 0 0
          CHANNELS 3 Zrotation Xrotation Yrotation
          End Site
          {
            OFFSET 0 0 0
          }
        }
      }
    }
  }
  JOINT RightUpLeg
  {
    OFFSET -8.2249 1.95398 -2.59336
    CHANNELS 3 Zrotation Xrotation Yrotation
    JOINT RightLeg
    {
      OFFSET 43.5653 0 0
      CHANNELS 3 Zrotation Xrotation Yrotation
      JOINT RightFoot
      {
        OFFSET 40.6238 0 0
        CHANNELS 3 Zrotation Xrotation Yrotation
        JOINT RightToeBase
        {
          OFFSET 12.7242 0 0
          CHANNELS 3 Zrotation Xrotation Yrotation
          End Site
          {
            OFFSET 0 0 0
          }
        }
      }
    }
  }
  JOINT Spine
  {
    OFFSET 0.165834 0.87714 6.61349
    CHANNELS 3 Zrotation Xrotation Yrotation
    JOINT Spine1
    {
      OFFSET 7.38963 1.71661e-005 0
      CHANNELS 3 Zrotation Xrotation Yrotation
      JOINT Spine2
      {
        OFFSET 11.9445 1.14441e-005 0
        CHANNELS 3 Zrotation Xrotation Yrotation
        JOINT Spine3
        {
          OFFSET 14.7254 4.19617e-005 0
          CHANNELS 3 Zrotation Xrotation Yrotation
          JOINT Spine4
          {
            OFFSET 10.9679 0 0
            CHANNELS 3 Zrotation Xrotation Yrotation
            JOINT RightShoulder
            {
              OFFSET 2.46616 -1.6653 3.69651
              CHANNELS 3 Zrotation Xrotation Yrotation
              JOINT RightArm
              {
                OFFSET 13.0012 0 0
                CHANNELS 3 Zrotation Xrotation Yrotation
                JOINT RightForeArm
                {
                  OFFSET 28.7848 1.52588e-005 0
                  CHANNELS 3 Zrotation Xrotation Yrotation
                  JOINT RightHand
                  {
                    OFFSET 26.5688 1.52588e-005 0
                    CHANNELS 3 Zrotation Xrotation Yrotation
                    End Site
                    {
                      OFFSET 0 0 0
                    }
                  }
                }
              }
            }
            JOINT LeftShoulder
            {
              OFFSET 2.38034 -1.29275 -3.7523
              CHANNELS 3 Zrotation Xrotation Yrotation
              JOINT LeftArm
              {
                OFFSET 16.3182 6.10351e-005 0
                CHANNELS 3 Zrotation Xrotation Yrotation
                JOINT LeftForeArm
                {
                  OFFSET 27.0901 0 0
                  CHANNELS 3 Zrotation Xrotation Yrotation
                  JOINT LeftHand
                  {
                    OFFSET 24.5451 1.52588e-005 0
                    CHANNELS 3 Zrotation Xrotation Yrotation
                    End Site
                    {
                      OFFSET 0 0 0
                    }
                  }
                }
              }
            }
            JOINT Neck
            {
              OFFSET 5.0226 -0.0266342 0
              CHANNELS 3 Zrotation Xrotation Yrotation
              JOINT Head
              {
                OFFSET 6.69363 2.86102e-005 0
                CHANNELS 3 Zrotation Xrotation Yrotation
                End Site
                {
                  OFFSET 0 0 0
                }
              }
            }
          }
        }
      }
    }
  }
}
MOTION
Frames:	12
Frame Time:	0.0416667
242.587 101.168 -219.087 95.411 48.38 88.3071 -175.79 0.0393982 89.5455 -11.6427 16.8439 2.72173 59.5571 4.51618 11.8927 37.322 -0.850635 1.01371 176.634 3.67957 90.2139 -17.4586 -0.422598 -0.915909 62.2437 7.72933 17.4777 26.667 1.29421 5.62466 0.0943457 7.5843 -91.5112 11.6884 -0.521443 -2.95776 0.0142352 -0.651042 -2.93199 -22.4941 0.39118 -2.97778 -2.48144 0.391164 -2.97777 102.083 -35.611 -82.3114 36.8056 -10.6879 -11.003 -4.04329 -14.5561 -8.43239 6.82598 0.0357552 -4.1171 -86.8032 -74.3777 86.4364 -14.4376 8.3015 -23.2745 3.49893 31.4019 -13.0271 -5.4252 -0.160525 -1.74419 101.039 0.334252 16.6747 -124.844 -1.13759 -14.2123 
242.485 101.167 -219.113 95.2017 48.0836 88.5413 -175.883 -0.180595 89.5021 -10.9922 15.9088 2.79958 59.8307 4.62999 11.2551 36.9243 -0.833877 0.823605 176.573 4.00114 90.3751 -18.3904 -5.32476 -0.565248 67.0084 3.08389 12.3775 19.0924 2.43532 2.52204 0.123613 7.58605 -91.5024 11.7061 -0.458761 -2.94266 0.0319753 -0.587783 -2.91965 -22.4767 0.446425 -2.94456 -2.46408 0.446433 -2.94456 102.161 -35.8597 -82.163 36.7129 -10.5066 -10.9748 -4.36111 -15.1006 -8.79797 7.41722 0.00409253 -4.64116 -86.828 -74.2116 86.3896 -14.435 8.10913 -23.2007 3.41633 32.2465 -12.5916 -5.50188 -0.109882 -3.66823 101.027 0.120197 16.7481 -124.635 -1.39517 -14.2784 
242.501 101.181 -219.109 95.2725 48.1425 88.5025 -175.848 -0.210553 89.529 -11.0251 16.0454 2.79239 59.8291 4.65351 11.3461 36.7482 -0.816554 0.808526 176.586 3.93248 90.3973 -18.3395 -4.78378 -0.601087 66.9323 3.33171 12.7813 18.9697 2.5129 3.07055 0.112708 7.58871 -91.4888 11.6839 -0.474067 -2.91737 0.00982129 -0.601936 -2.89372 -22.4993 0.42424 -2.92502 -2.48665 0.424253 -2.92502 102.154 -35.919 -82.1769 36.8241 -10.4369 -10.9632 -4.27286 -14.8525 -8.75857 6.97834 0.0195343 -4.39055 -86.5103 -73.7986 86.7179 -14.7515 8.19545 -23.2204 3.45844 32.1155 -12.6735 -5.66816 -0.114567 -3.44273 101.038 0.0604416 16.696 -124.694 -1.57446 -14.1505 
242.5 101.173 -219.168 95.3721 48.1123 88.4819 -175.796 -0.204844 89.5742 -11.1888 15.9875 2.77521 59.8344 4.60732 11.3806 36.9016 -0.871407 0.534743 176.615 3.73522 90.403 -18.1583 -5.16449 -0.621777 66.8774 3.39306 12.9892 19.5156 2.30648 1.81779 0.117198 7.58707 -91.4751 11.6842 -0.458765 -2.89218 0.0102106 -0.585556 -2.86923 -22.4994 0.431287 -2.89641 -2.48673 0.431279 -2.89641 102.186 -36.0774 -82.1168 36.6238 -10.8025 -10.941 -4.06145 -14.4907 -8.69303 6.89892 0.015434 -4.31518 -86.2258 -73.4511 87.0166 -15.0592 8.22107 -23.1013 3.51686 32.0832 -12.6966 -5.59366 -0.116657 -3.39601 100.819 0.0641969 16.8488 -124.621 -1.39406 -14.3697 
242.475 101.172 -219.214 95.3779 47.946 88.3975 -175.802 -0.357626 89.4789 -10.9215 15.7021 2.71956 59.7346 4.51489 11.2495 37.0384 -0.903303 0.414242 176.513 3.8323 90.2676 -18.3171 -5.09475 -0.576147 66.8309 3.42215 12.9082 19.3711 2.3986 2.6355 0.140456 7.57675 -91.4361 11.7068 -0.394552 -2.82123 0.0328909 -0.518284 -2.80115 -22.478 0.471231 -2.80945 -2.46539 0.471221 -2.80945 102.231 -36.5676 -82.0324 36.3534 -10.7082 -10.8822 -4.11058 -14.8164 -8.5667 7.17067 0.0151223 -4.39419 -86.2471 -72.8531 86.9305 -15.3446 8.44307 -22.9549 3.3572 31.9823 -12.5746 -5.3557 -0.118374 -3.30112 100.549 0.0974738 17.0064 -124.496 -1.13516 -14.6223 
242.456 101.163 -219.232 95.2633 48.0348 88.5309 -175.853 -0.255706 89.4952 -11.0102 15.8994 2.77565 59.8569 4.6384 11.3184 36.8946 -0.842135 0.739469 176.554 3.90693 90.3203 -18.335 -4.9768 -0.593516 66.8804 3.37855 12.866 19.3239 2.41391 2.71121 0.137071 7.55511 -91.4104 11.7505 -0.389604 -2.7705 0.076713 -0.511128 -2.7507 -22.4351 0.460698 -2.75958 -2.42242 0.460719 -2.75958 102.36 -36.9221 -81.7935 36.2923 -10.6908 -10.848 -4.24631 -15.0616 -8.71429 7.24245 0.0151053 -4.47301 -86.2412 -72.2353 86.874 -15.7165 8.49676 -22.7444 3.4782 32.0516 -12.6895 -5.67467 -0.125432 -3.16642 100.269 0.150219 17.1664 -124.313 -0.962213 -14.8194 
242.406 101.152 -219.24 95.4104 48.2756 88.4863 -175.941 0.0402411 89.4621 -11.6993 16.124 2.87436 59.9511 4.66474 11.4649 36.9194 -0.837157 0.794751 176.405 3.77998 90.2271 -18.2411 -4.32574 -0.488333 66.6549 3.84645 13.8133 19.2871 2.43702 2.92269 0.112136 7.54814 -91.3728 11.7646 -0.421822 -2.69227 0.0909996 -0.539859 -2.67113 -22.422 0.406498 -2.69463 -2.40937 0.406522 -2.69463 102.366 -37.4351 -81.7872 36.0857 -10.9768 -10.8388 -3.901 -14.5042 -8.39085 6.77975 0.00273569 -4.63018 -86.2312 -71.6006 86.82 -16.1014 8.67624 -22.5043 3.57334 31.9244 -12.8377 -5.63103 -0.138382 -2.70532 99.9365 -0.0145739 17.3158 -124.08 -0.643365 -15.2281 
242.098 101.153 -219.067 96.1415 48.5547 87.8202 -176.102 0.0518257 89.2851 -12.2139 16.4621 2.92169 59.7132 4.65348 11.7354 37.2424 -0.854383 0.926138 176.137 4.16284 90.001 -19.1994 -5.81905 -0.248045 65.2725 3.68287 12.0663 22.4069 1.82125 3.17099 0.039978 7.61532 -91.2848 11.6306 -0.522485 -2.50604 -0.0425918 -0.632232 -2.48065 -22.5584 0.254587 -2.54721 -2.54576 0.254582 -2.54721 102.354 -38.2855 -81.8128 35.4506 -11.5631 -11.2444 -3.49623 -13.7125 -8.31089 6.22484 -0.0075076 -4.74286 -86.1029 -70.0089 86.8092 -17.5791 8.5192 -22.3493 4.00527 32.2123 -12.8821 -5.14158 -0.116826 -3.26227 99.8364 -0.790127 16.9582 -123.823 -1.05214 -15.1465 
241.667 101.171 -218.941 97.106 48.7544 87.228 -176.032 -0.148015 89.3372 -12.6512 16.7649 2.92905 59.8853 4.73732 11.6892 36.5757 -0.787694 0.881774 176.145 3.93356 90.0421 -19.4319 -5.74778 -0.297306 64.6334 3.7766 11.5915 24.6552 1.40657 3.53413 -0.056411 7.69577 -91.1689 11.4702 -0.658312 -2.26154 -0.202503 -0.757196 -2.2304 -22.7219 0.0515809 -2.3548 -2.70921 0.0516003 -2.35479 102.172 -39.8447 -82.147 34.9278 -10.852 -10.7438 -4.73032 -15.1356 -9.91105 8.07654 0.047947 -4.09701 -85.2449 -68.0617 87.67 -18.6732 8.95272 -22.2847 4.25769 31.4244 -13.3745 -5.70324 -0.158729 -2.0249 99.6272 -2.04093 16.1105 -123.586 -1.55757 -14.8347 
240.738 101.129 -218.746 97.1862 48.3497 87.3822 -176.078 0.467634 89.1615 -13.162 16.295 2.82583 59.9495 4.52545 11.5908 36.1238 -0.790157 0.484102 176.272 4.10765 89.9195 -19.1421 -4.77393 -0.506014 65.6451 3.87052 13.3544 19.9642 2.2953 2.90376 -0.0521067 7.73896 -91.0474 11.3861 -0.592272 -2.0267 -0.286207 -0.680875 -1.9987 -22.8087 0.0440627 -2.11098 -2.79603 0.0440626 -2.11098 102.343 -41.1553 -81.8478 34.245 -11.5192 -10.7357 -4.14827 -13.5908 -10.152 6.21696 -0.00585657 -4.71157 -84.711 -65.6467 88.113 -20.2882 9.27238 -22.0929 4.68598 31.6808 -13.7639 -5.66064 -0.149801 -2.30862 99.4054 -3.08695 15.5131 -122.956 -1.48228 -15.0466 
239.677 101.136 -218.522 96.745 48.3421 87.9772 -176.313 1.44512 89.0765 -13.3191 15.9195 2.82364 59.8462 4.29876 11.3742 35.1956 -0.739896 0.0501169 176.417 4.83626 89.9073 -18.7151 -5.84413 -0.489262 64.6591 3.68211 12.0519 20.4479 2.22329 3.18329 -0.0831308 7.73258 -90.9035 11.4011 -0.587011 -1.74031 -0.270857 -0.663036 -1.7128 -22.7967 -0.0369391 -1.83624 -2.78406 -0.0369419 -1.83625 102.362 -42.7948 -81.8251 33.7994 -11.6313 -10.068 -4.10269 -13.208 -10.5596 5.44015 -0.0124505 -4.8104 -84.5309 -63.0635 88.1032 -22.142 9.21467 -21.4137 5.40079 31.2946 -14.2781 -5.7568 -0.159227 -2.03989 99.2587 -4.28282 14.7089 -122.494 -1.92806 -14.8247 
238.597 101.091 -218.246 96.9176 48.1105 88.0226 -176.059 2.17521 89.0022 -13.8201 16.0763 2.427 59.8282 3.98846 11.5697 34.3325 -0.707917 -0.553085 176.502 5.34389 89.7415 -18.6093 -6.57633 -0.55112 63.773 3.90863 11.7841 22.9952 1.60887 2.33305 -0.115262 7.79686 -90.7528 11.2742 -0.579825 -1.44129 -0.397404 -0.642711 -1.41439 -22.9262 -0.11993 -1.5489 -2.9136 -0.119927 -1.5489 102.188 -44.0134 -82.1242 33.7287 -11.5995 -9.55173 -4.23343 -13.6796 -10.7099 5.43457 -0.0323632 -5.20688 -83.9061 -60.4773 88.6962 -23.9297 9.03942 -21.0772 5.94224 31.8501 -14.3747 -5.88546 -0.157449 -2.18147 99.0571 -5.45897 13.8102 -121.982 -2.44066 -14.4615 
